<svg width="148" height="138" viewBox="0 0 148 138" fill="none" xmlns="http://www.w3.org/2000/svg">
<path d="M111 13.8H125.8C129.725 13.8 133.49 15.2539 136.265 17.8419C139.041 20.4299 140.6 23.94 140.6 27.6V124.2C140.6 127.86 139.041 131.37 136.265 133.958C133.49 136.546 129.725 138 125.8 138H22.2C18.2748 138 14.5104 136.546 11.7348 133.958C8.95931 131.37 7.40002 127.86 7.40002 124.2V27.6C7.40002 20.01 14.06 13.8 22.2 13.8H37V0H51.8V13.8H96.2V0H111V13.8ZM22.2 41.4V124.2H125.8V41.4H22.2ZM66.6 75.9V62.1H81.4V75.9H96.2V89.7H81.4V103.5H66.6V89.7H51.8V75.9H66.6Z" fill="white"/>
</svg>
