<svg width="458" height="90" viewBox="0 0 458 90" fill="none" xmlns="http://www.w3.org/2000/svg">
<ellipse cx="45" cy="45" rx="45" ry="40" fill="#A5243D"/>
<path d="M157.12 27.47L143.62 71H135.49L126.58 42.53C126.44 42.13 126.3 41.69 126.16 41.21C126.02 40.73 125.89 40.22 125.77 39.68C125.65 40.22 125.52 40.73 125.38 41.21C125.24 41.69 125.1 42.13 124.96 42.53L115.96 71H107.8L94.33 27.47H101.89C102.67 27.47 103.32 27.65 103.84 28.01C104.38 28.37 104.73 28.85 104.89 29.45L111.64 53.99C111.8 54.67 111.96 55.41 112.12 56.21C112.3 56.99 112.47 57.82 112.63 58.7C112.81 57.8 113 56.96 113.2 56.18C113.4 55.4 113.62 54.67 113.86 53.99L121.72 29.45C121.88 28.95 122.22 28.5 122.74 28.1C123.28 27.68 123.93 27.47 124.69 27.47H127.33C128.11 27.47 128.74 27.66 129.22 28.04C129.72 28.4 130.09 28.87 130.33 29.45L138.16 53.99C138.4 54.63 138.62 55.33 138.82 56.09C139.02 56.83 139.21 57.62 139.39 58.46C139.55 57.62 139.7 56.83 139.84 56.09C140 55.33 140.16 54.63 140.32 53.99L147.07 29.45C147.21 28.93 147.55 28.47 148.09 28.07C148.63 27.67 149.28 27.47 150.04 27.47H157.12ZM173.18 58.07C171.16 58.17 169.48 58.35 168.14 58.61C166.8 58.85 165.73 59.17 164.93 59.57C164.15 59.97 163.59 60.43 163.25 60.95C162.93 61.45 162.77 62 162.77 62.6C162.77 63.8 163.1 64.65 163.76 65.15C164.44 65.65 165.38 65.9 166.58 65.9C167.96 65.9 169.15 65.66 170.15 65.18C171.17 64.68 172.18 63.91 173.18 62.87V58.07ZM156.32 44.36C158.14 42.72 160.15 41.5 162.35 40.7C164.55 39.88 166.93 39.47 169.49 39.47C171.33 39.47 172.97 39.77 174.41 40.37C175.87 40.97 177.1 41.81 178.1 42.89C179.12 43.95 179.9 45.22 180.44 46.7C180.98 48.18 181.25 49.8 181.25 51.56V71H177.47C176.69 71 176.09 70.89 175.67 70.67C175.27 70.45 174.94 69.99 174.68 69.29L174.02 67.31C173.24 67.99 172.48 68.59 171.74 69.11C171.02 69.63 170.27 70.07 169.49 70.43C168.71 70.77 167.87 71.03 166.97 71.21C166.09 71.39 165.1 71.48 164 71.48C162.64 71.48 161.4 71.3 160.28 70.94C159.16 70.58 158.19 70.05 157.37 69.35C156.57 68.63 155.95 67.74 155.51 66.68C155.07 65.62 154.85 64.4 154.85 63.02C154.85 61.88 155.14 60.74 155.72 59.6C156.3 58.46 157.29 57.43 158.69 56.51C160.11 55.57 161.99 54.8 164.33 54.2C166.69 53.58 169.64 53.23 173.18 53.15V51.56C173.18 49.62 172.77 48.2 171.95 47.3C171.13 46.38 169.95 45.92 168.41 45.92C167.27 45.92 166.32 46.06 165.56 46.34C164.8 46.6 164.13 46.89 163.55 47.21C162.99 47.51 162.46 47.8 161.96 48.08C161.46 48.34 160.88 48.47 160.22 48.47C159.64 48.47 159.15 48.33 158.75 48.05C158.37 47.75 158.05 47.4 157.79 47L156.32 44.36ZM195.393 43.67C196.013 43.07 196.653 42.52 197.313 42.02C197.993 41.52 198.703 41.09 199.443 40.73C200.203 40.37 201.013 40.09 201.873 39.89C202.753 39.69 203.703 39.59 204.723 39.59C206.403 39.59 207.893 39.88 209.193 40.46C210.493 41.04 211.583 41.85 212.463 42.89C213.363 43.93 214.033 45.17 214.473 46.61C214.933 48.05 215.163 49.63 215.163 51.35V71H206.913V51.35C206.913 49.63 206.513 48.3 205.713 47.36C204.913 46.4 203.733 45.92 202.173 45.92C201.013 45.92 199.923 46.17 198.903 46.67C197.883 47.17 196.913 47.87 195.993 48.77V71H187.713V40.07H192.813C193.853 40.07 194.543 40.55 194.883 41.51L195.393 43.67ZM235.706 39.59C238.026 39.59 240.136 39.96 242.036 40.7C243.936 41.44 245.566 42.5 246.926 43.88C248.286 45.24 249.336 46.9 250.076 48.86C250.816 50.82 251.186 53.03 251.186 55.49C251.186 57.95 250.816 60.17 250.076 62.15C249.336 64.11 248.286 65.78 246.926 67.16C245.566 68.54 243.936 69.6 242.036 70.34C240.136 71.08 238.026 71.45 235.706 71.45C233.366 71.45 231.236 71.08 229.316 70.34C227.416 69.6 225.786 68.54 224.426 67.16C223.066 65.78 222.006 64.11 221.246 62.15C220.506 60.17 220.136 57.95 220.136 55.49C220.136 53.03 220.506 50.82 221.246 48.86C222.006 46.9 223.066 45.24 224.426 43.88C225.786 42.5 227.416 41.44 229.316 40.7C231.236 39.96 233.366 39.59 235.706 39.59ZM235.706 65.24C238.066 65.24 239.816 64.43 240.956 62.81C242.096 61.17 242.666 58.74 242.666 55.52C242.666 52.32 242.096 49.91 240.956 48.29C239.816 46.65 238.066 45.83 235.706 45.83C233.286 45.83 231.506 46.65 230.366 48.29C229.226 49.91 228.656 52.32 228.656 55.52C228.656 58.74 229.226 61.17 230.366 62.81C231.506 64.43 233.286 65.24 235.706 65.24ZM286.813 60.29C287.313 60.29 287.733 60.47 288.073 60.83L291.643 64.64C289.883 66.88 287.693 68.58 285.073 69.74C282.473 70.9 279.373 71.48 275.773 71.48C272.513 71.48 269.583 70.93 266.983 69.83C264.383 68.71 262.173 67.16 260.353 65.18C258.533 63.2 257.133 60.85 256.153 58.13C255.173 55.41 254.683 52.44 254.683 49.22C254.683 47.06 254.913 45.01 255.373 43.07C255.853 41.11 256.543 39.31 257.443 37.67C258.343 36.03 259.423 34.55 260.683 33.23C261.963 31.91 263.403 30.79 265.003 29.87C266.603 28.93 268.343 28.22 270.223 27.74C272.123 27.24 274.143 26.99 276.283 26.99C277.883 26.99 279.393 27.13 280.813 27.41C282.253 27.69 283.593 28.08 284.833 28.58C286.073 29.08 287.213 29.69 288.253 30.41C289.313 31.11 290.263 31.88 291.103 32.72L288.073 36.86C287.893 37.12 287.663 37.35 287.383 37.55C287.103 37.75 286.723 37.85 286.243 37.85C285.763 37.85 285.273 37.68 284.773 37.34C284.293 37 283.693 36.62 282.973 36.2C282.273 35.78 281.383 35.4 280.303 35.06C279.243 34.72 277.893 34.55 276.253 34.55C274.433 34.55 272.763 34.88 271.243 35.54C269.723 36.2 268.413 37.16 267.313 38.42C266.233 39.66 265.393 41.19 264.793 43.01C264.193 44.83 263.893 46.9 263.893 49.22C263.893 51.56 264.213 53.65 264.853 55.49C265.513 57.31 266.403 58.85 267.523 60.11C268.663 61.37 269.983 62.33 271.483 62.99C273.003 63.63 274.623 63.95 276.343 63.95C277.363 63.95 278.283 63.9 279.103 63.8C279.943 63.7 280.713 63.53 281.413 63.29C282.133 63.05 282.803 62.74 283.423 62.36C284.063 61.98 284.703 61.5 285.343 60.92C285.563 60.74 285.793 60.59 286.033 60.47C286.273 60.35 286.533 60.29 286.813 60.29ZM303.924 26.27V71H295.644V26.27H303.924ZM319.338 40.07V71H311.058V40.07H319.338ZM320.328 31.28C320.328 31.98 320.188 32.63 319.908 33.23C319.628 33.83 319.248 34.36 318.768 34.82C318.308 35.28 317.758 35.64 317.118 35.9C316.498 36.16 315.828 36.29 315.108 36.29C314.428 36.29 313.778 36.16 313.158 35.9C312.558 35.64 312.028 35.28 311.568 34.82C311.108 34.36 310.738 33.83 310.458 33.23C310.198 32.63 310.068 31.98 310.068 31.28C310.068 30.58 310.198 29.93 310.458 29.33C310.738 28.71 311.108 28.17 311.568 27.71C312.028 27.25 312.558 26.89 313.158 26.63C313.778 26.37 314.428 26.24 315.108 26.24C315.828 26.24 316.498 26.37 317.118 26.63C317.758 26.89 318.308 27.25 318.768 27.71C319.248 28.17 319.628 28.71 319.908 29.33C320.188 29.93 320.328 30.58 320.328 31.28ZM334.084 43.67C334.704 43.07 335.344 42.52 336.004 42.02C336.684 41.52 337.394 41.09 338.134 40.73C338.894 40.37 339.704 40.09 340.564 39.89C341.444 39.69 342.394 39.59 343.414 39.59C345.094 39.59 346.584 39.88 347.884 40.46C349.184 41.04 350.274 41.85 351.154 42.89C352.054 43.93 352.724 45.17 353.164 46.61C353.624 48.05 353.854 49.63 353.854 51.35V71H345.604V51.35C345.604 49.63 345.204 48.3 344.404 47.36C343.604 46.4 342.424 45.92 340.864 45.92C339.704 45.92 338.614 46.17 337.594 46.67C336.574 47.17 335.604 47.87 334.684 48.77V71H326.404V40.07H331.504C332.544 40.07 333.234 40.55 333.574 41.51L334.084 43.67ZM368.967 40.07V71H360.687V40.07H368.967ZM369.957 31.28C369.957 31.98 369.817 32.63 369.537 33.23C369.257 33.83 368.877 34.36 368.397 34.82C367.937 35.28 367.387 35.64 366.747 35.9C366.127 36.16 365.457 36.29 364.737 36.29C364.057 36.29 363.407 36.16 362.787 35.9C362.187 35.64 361.657 35.28 361.197 34.82C360.737 34.36 360.367 33.83 360.087 33.23C359.827 32.63 359.697 31.98 359.697 31.28C359.697 30.58 359.827 29.93 360.087 29.33C360.367 28.71 360.737 28.17 361.197 27.71C361.657 27.25 362.187 26.89 362.787 26.63C363.407 26.37 364.057 26.24 364.737 26.24C365.457 26.24 366.127 26.37 366.747 26.63C367.387 26.89 367.937 27.25 368.397 27.71C368.877 28.17 369.257 28.71 369.537 29.33C369.817 29.93 369.957 30.58 369.957 31.28ZM398.473 46.97C398.233 47.29 397.993 47.54 397.753 47.72C397.513 47.88 397.173 47.96 396.733 47.96C396.333 47.96 395.943 47.85 395.563 47.63C395.203 47.39 394.783 47.14 394.303 46.88C393.823 46.6 393.253 46.35 392.593 46.13C391.933 45.89 391.113 45.77 390.133 45.77C388.893 45.77 387.813 46 386.893 46.46C385.993 46.9 385.243 47.54 384.643 48.38C384.043 49.22 383.593 50.24 383.293 51.44C383.013 52.64 382.873 53.99 382.873 55.49C382.873 58.65 383.503 61.07 384.763 62.75C386.043 64.43 387.783 65.27 389.983 65.27C390.743 65.27 391.393 65.21 391.933 65.09C392.493 64.95 392.973 64.78 393.373 64.58C393.793 64.38 394.153 64.16 394.453 63.92C394.753 63.68 395.033 63.46 395.293 63.26C395.573 63.06 395.843 62.9 396.103 62.78C396.383 62.64 396.693 62.57 397.033 62.57C397.673 62.57 398.173 62.81 398.533 63.29L400.903 66.29C400.023 67.31 399.083 68.16 398.083 68.84C397.083 69.5 396.043 70.03 394.963 70.43C393.903 70.81 392.823 71.07 391.723 71.21C390.623 71.37 389.533 71.45 388.453 71.45C386.553 71.45 384.753 71.1 383.053 70.4C381.353 69.68 379.863 68.64 378.583 67.28C377.303 65.92 376.283 64.25 375.523 62.27C374.783 60.29 374.413 58.03 374.413 55.49C374.413 53.23 374.743 51.13 375.403 49.19C376.063 47.25 377.033 45.57 378.313 44.15C379.593 42.73 381.173 41.62 383.053 40.82C384.953 40 387.143 39.59 389.623 39.59C391.983 39.59 394.053 39.97 395.833 40.73C397.613 41.49 399.213 42.59 400.633 44.03L398.473 46.97ZM403.926 66.65C403.926 65.99 404.046 65.37 404.286 64.79C404.546 64.19 404.896 63.68 405.336 63.26C405.776 62.82 406.286 62.48 406.866 62.24C407.466 61.98 408.116 61.85 408.816 61.85C409.496 61.85 410.136 61.98 410.736 62.24C411.336 62.48 411.856 62.82 412.296 63.26C412.736 63.68 413.076 64.19 413.316 64.79C413.576 65.37 413.706 65.99 413.706 66.65C413.706 67.33 413.576 67.96 413.316 68.54C413.076 69.12 412.736 69.63 412.296 70.07C411.856 70.49 411.336 70.82 410.736 71.06C410.136 71.3 409.496 71.42 408.816 71.42C408.116 71.42 407.466 71.3 406.866 71.06C406.286 70.82 405.776 70.49 405.336 70.07C404.896 69.63 404.546 69.12 404.286 68.54C404.046 67.96 403.926 67.33 403.926 66.65Z" fill="#A5243D"/>
<path d="M48.4531 40.6406H56.4453V47.4141H48.4531V56.5781H41.0703V47.4141H33.0547V40.6406H41.0703V31.7344H48.4531V40.6406Z" fill="white"/>
</svg>
