<svg width="150" height="150" viewBox="0 0 150 150" fill="none" xmlns="http://www.w3.org/2000/svg">
<path d="M146.18 128.341L99.9141 82.0664C93.7875 75.9398 96.7453 71.4398 96.7453 71.4398L96.7172 71.4093C98.7633 67.1953 98.0742 61.9992 94.582 58.5L76.5727 40.4906C72.1523 36.0679 64.9852 36.0679 60.5625 40.4906L57.8109 43.2375L57.518 43.5328C57.518 43.5328 56.2547 46.0453 62.0133 46.3804L62.0156 46.3875C62.0156 46.3875 64.6641 46.6125 67.2516 49.2L73.6266 55.575C75.9562 57.9023 76.0195 60.3304 75.9117 61.4226C75.3797 64.4226 73.9969 67.2984 71.6742 69.614C69.375 71.9203 66.5156 73.2914 63.5391 73.8257C62.2195 73.9476 59.7094 73.7203 56.9297 70.9406L52.0969 66.1007C49.0523 63.0562 48.4055 59.1281 48.4055 59.1281H48.3984C47.2195 53.7867 45.607 55.4507 45.607 55.4507L42.5602 58.4976C38.1398 62.9156 38.1398 70.0851 42.5578 74.5078L60.5648 92.5125C64.2445 96.1945 69.8156 96.764 74.1352 94.3195L74.168 94.3546C74.168 94.3546 78.1312 91.8492 83.4656 97.1882L131.48 145.209C131.48 145.209 137.316 150.94 142.821 145.437L147.363 140.895C148.898 139.179 152.149 134.311 146.18 128.341Z" fill="white"/>
<path d="M96.0117 122.041C93.1383 118.624 88.5258 120.743 88.5258 120.743L88.5141 120.712C88.1203 120.846 87.7336 121.003 87.3328 121.127C87.2063 121.174 87.1266 121.226 86.9789 121.284C80.6789 123.605 80.6203 128.395 80.6203 128.395V134.013C80.5313 138.794 76.7156 139.634 74.7422 139.76H72.457C67.5539 139.859 66.675 136.861 66.5484 135.258V128.789C66.5484 122.841 59.9086 121.198 59.9086 121.198L59.9297 121.169C56.3344 120.105 52.9336 118.594 49.7391 116.78C49.6055 116.721 49.5 116.686 49.3547 116.613C43.9805 113.92 39.975 117.719 39.975 117.719L35.407 122.287C32.2172 125.466 29.857 123.984 28.9922 123.199L28.6242 122.826L28.6102 122.808H28.6078L24.8555 119.055C24.8531 119.048 24.8484 119.048 24.8414 119.041C21.9047 116.109 25.725 112.076 26.2336 111.567L30.6891 107.116C30.6914 107.116 30.6914 107.105 30.6914 107.105C34.125 103.671 31.4273 98.3249 31.4273 98.3249C31.4273 98.3249 31.4648 98.3179 31.4719 98.3179C29.7586 95.2054 28.343 91.9077 27.3328 88.4202C27.3 88.3288 27.2625 88.2702 27.2273 88.1741C24.9656 81.921 19.2609 82.0265 19.1508 82.0265L14.8219 82.0452C9.75469 82.0523 8.84297 78.7593 8.70703 77.0273L8.69531 73.5374C8.72578 72.096 9.24844 68.0179 14.3742 67.9733C14.3766 67.9733 14.3766 67.9733 14.3766 67.9733L19.9242 67.9499C19.9242 67.9499 25.1531 68.1937 27.0094 62.6226C27.0352 62.5522 27.0703 62.5147 27.0938 62.4444C28.207 58.3405 29.8125 54.4452 31.8984 50.8616C31.8984 50.8616 31.8984 50.8593 31.8984 50.8546C34.5469 45.5272 30.7641 41.5312 30.2695 41.046L26.4961 37.2772C26.4961 37.2772 26.4961 37.2749 26.4891 37.2679C22.8492 33.628 25.343 30.4733 26.2078 29.5733L28.1742 27.6069C28.1742 27.6069 32.3227 23.2147 36.7148 27.6069C36.7219 27.6069 36.7219 27.6093 36.7266 27.614L41.0156 31.903C41.8242 32.6694 45.1242 35.353 49.8586 33.0538C49.8773 33.0468 49.8844 33.0468 49.9008 33.0397C52.9477 31.3147 56.2242 29.9601 59.6344 28.9194C59.7258 28.8819 59.775 28.8374 59.8781 28.7952C65.3719 26.6366 66.3961 23.2499 66.5484 21.4991V15.096C66.5789 14.0249 66.9891 9.8085 71.9133 9.8085H74.993C74.993 9.8085 80.6109 9.621 80.6109 15.8765V20.7093C80.6414 22.0874 81.1219 26.6788 86.4188 28.5468C86.4281 28.5491 86.4281 28.5538 86.4422 28.5585C89.6484 29.4421 92.707 30.6843 95.6086 32.1843L95.6391 32.1585C95.6391 32.1585 102.248 36.2601 107.238 31.2749L110.576 27.9374C110.73 27.7827 115.247 23.4093 118.624 26.7866C118.631 26.789 118.638 26.7937 118.638 26.8007L121.404 29.5593C121.404 29.5593 124.758 33.6421 120.534 37.8679L116.796 41.6062C116.796 41.6062 112.898 45.5999 115.73 51.6515C115.779 51.7569 115.779 51.8202 115.823 51.9233C117.548 55.0663 118.91 58.4296 119.913 61.9523C119.923 61.9452 119.96 61.9147 119.96 61.9147C119.96 61.9147 121.17 67.9851 126.584 67.971L131.838 67.9476H131.979H132.216C132.368 67.9452 138.633 67.8444 138.647 73.7624L138.663 76.2491V76.2562V76.8679C138.612 78.3327 137.913 81.9937 132.089 82.0148L127.05 82.0312C123.11 82.0687 121.151 85.296 120.288 87.3491C119.96 88.2468 119.194 91.1577 121.973 93.8929L122.688 94.596C122.702 94.6077 122.712 94.6148 122.721 94.6265C126.874 99.0796 129.839 92.8429 129.839 92.8429C131.723 89.7116 134.477 89.0835 135.952 88.9827H143.637C145.973 88.9827 147.867 87.0913 147.867 84.7523V65.2405C147.867 62.9085 145.973 61.0101 143.637 61.0101H136.305C130.556 61.0101 129.105 55.6757 129.105 55.6757C129.105 55.6757 129.068 55.6851 129.056 55.6897C128.201 53.2288 127.228 50.8171 126.063 48.5155C126.063 48.5085 126.063 48.5038 126.056 48.4968C124.118 44.2312 127.753 40.596 127.952 40.4062L132.63 35.7187C134.28 34.0663 134.28 31.3897 132.63 29.7351L118.835 15.9397C117.178 14.2897 114.502 14.2921 112.852 15.9421L109.453 19.3358C104.147 24.6749 99.1711 22.0968 99.1711 22.0968L99.1641 22.1108C97.2563 21.1968 95.3039 20.3718 93.2977 19.6569C93.2039 19.6124 93.1383 19.5726 93.0422 19.5327C88.6055 17.7163 88.0219 13.1694 87.9656 11.3272V6.40772C87.9656 4.071 86.0695 2.17725 83.7352 2.17725H63.4266C61.0945 2.17725 59.1961 4.071 59.1961 6.40772V12.5226C59.1961 18.6468 54.0164 19.5749 54.0164 19.5749L54.0469 19.6054C51.8062 20.4046 49.6102 21.2976 47.4961 22.3476C47.4586 22.3616 47.4375 22.3546 47.4 22.3687C43.1766 24.239 40.8422 22.4062 40.2492 21.8319L40.1039 21.6866L40.0828 21.6608H40.0805L34.3594 15.928C32.7047 14.278 30.0258 14.278 28.3758 15.921L14.5664 29.7116C12.9164 31.3663 12.9117 34.0405 14.5664 35.6929L19.1508 40.2819C19.1508 40.2819 23.1258 44.114 21.1547 48.4171C21.1547 48.4241 21.1547 48.4241 21.1547 48.4241C20.0133 50.6671 19.0547 53.0132 18.2062 55.4085C18.1477 55.5327 18.0914 55.6288 18.0328 55.7741C16.275 60.0655 13.0102 60.8835 11.2641 61.0101H4.59375C2.25703 61.0101 0.363281 62.9085 0.363281 65.2405V84.7523C0.363281 87.0913 2.25703 88.9827 4.59375 88.9827H12.1875C16.4836 88.9827 17.6133 92.946 17.6133 92.946C17.6133 92.946 17.6437 92.8733 17.6625 92.8382C18.5414 95.5733 19.5445 98.2523 20.7938 100.795C20.7914 100.795 20.768 100.807 20.768 100.807C20.768 100.807 23.4516 105.356 20.4445 108.363V108.37L14.5406 114.272C12.8906 115.922 12.8906 118.608 14.5406 120.251L28.3383 134.046C29.993 135.701 32.6672 135.701 34.3172 134.046L39.6281 128.744L39.6398 128.728L39.8766 128.496C40.6055 127.802 43.1625 125.916 48.0961 127.952C48.1477 127.978 48.1781 127.985 48.225 128.001C50.107 128.892 52.043 129.703 54.0258 130.399L54.0023 130.42C54.0023 130.42 59.1984 131.967 59.1984 137.187V143.59C59.1984 145.929 61.0969 147.82 63.4289 147.82H83.7375C86.0719 147.82 87.968 145.929 87.968 143.59V136.577C88.0617 135.03 88.7484 132.11 92.3883 130.678C92.5289 130.619 92.618 130.57 92.7281 130.521C94.1344 130.031 95.4844 129.434 96.8438 128.852C100.127 127.029 97.0828 123.312 97.0828 123.312L96.0117 122.041Z" fill="white"/>
</svg>
